<mxfile host="app.diagrams.net" modified="2023-02-16T19:04:36.374Z" agent="5.0 (Windows NT 10.0; Win64; x64) AppleWebKit/537.36 (KHTML, like Gecko) Chrome/110.0.0.0 Safari/537.36 Edg/110.0.1587.46" etag="DswLpO9aYf6JoJp8kGrK" version="20.8.20" type="github" pages="2">
  <diagram name="Página-1" id="MuzbAoMKpFFEW0DmLgud">
    <mxGraphModel dx="1674" dy="796" grid="1" gridSize="10" guides="1" tooltips="1" connect="1" arrows="1" fold="1" page="1" pageScale="1" pageWidth="827" pageHeight="1169" math="0" shadow="0">
      <root>
        <mxCell id="0" />
        <mxCell id="1" parent="0" />
        <mxCell id="DYDoGEOzyGnZ9LRoOym6-1" value="" style="edgeStyle=orthogonalEdgeStyle;rounded=0;orthogonalLoop=1;jettySize=auto;html=1;" parent="1" source="DYDoGEOzyGnZ9LRoOym6-2" target="DYDoGEOzyGnZ9LRoOym6-4" edge="1">
          <mxGeometry relative="1" as="geometry" />
        </mxCell>
        <mxCell id="DYDoGEOzyGnZ9LRoOym6-2" value="TIENDA" style="shape=umlActor;verticalLabelPosition=bottom;verticalAlign=top;html=1;outlineConnect=0;" parent="1" vertex="1">
          <mxGeometry x="110" y="140" width="30" height="60" as="geometry" />
        </mxCell>
        <mxCell id="DYDoGEOzyGnZ9LRoOym6-3" value="" style="edgeStyle=orthogonalEdgeStyle;rounded=0;orthogonalLoop=1;jettySize=auto;html=1;" parent="1" source="DYDoGEOzyGnZ9LRoOym6-4" target="DYDoGEOzyGnZ9LRoOym6-8" edge="1">
          <mxGeometry relative="1" as="geometry" />
        </mxCell>
        <mxCell id="DYDoGEOzyGnZ9LRoOym6-4" value="CONSUME SERVICIO CONSULTA AL CUAL (PRIMER AJUSTE SETIAR agente Y ENVIAR CodAgente)" style="whiteSpace=wrap;html=1;verticalAlign=top;" parent="1" vertex="1">
          <mxGeometry x="379" y="120" width="121" height="120" as="geometry" />
        </mxCell>
        <mxCell id="DYDoGEOzyGnZ9LRoOym6-6" style="edgeStyle=orthogonalEdgeStyle;rounded=0;orthogonalLoop=1;jettySize=auto;html=1;" parent="1" source="DYDoGEOzyGnZ9LRoOym6-8" target="DYDoGEOzyGnZ9LRoOym6-11" edge="1">
          <mxGeometry relative="1" as="geometry">
            <Array as="points">
              <mxPoint x="550" y="420" />
              <mxPoint x="550" y="420" />
            </Array>
          </mxGeometry>
        </mxCell>
        <mxCell id="DYDoGEOzyGnZ9LRoOym6-7" value="INSERTA" style="edgeLabel;html=1;align=center;verticalAlign=middle;resizable=0;points=[];" parent="DYDoGEOzyGnZ9LRoOym6-6" vertex="1" connectable="0">
          <mxGeometry x="0.2232" relative="1" as="geometry">
            <mxPoint as="offset" />
          </mxGeometry>
        </mxCell>
        <mxCell id="Ld5dgP6fd7TEVGU1cFsj-5" value="" style="edgeStyle=orthogonalEdgeStyle;rounded=0;orthogonalLoop=1;jettySize=auto;html=1;" edge="1" parent="1" source="DYDoGEOzyGnZ9LRoOym6-8" target="Ld5dgP6fd7TEVGU1cFsj-4">
          <mxGeometry relative="1" as="geometry" />
        </mxCell>
        <mxCell id="DYDoGEOzyGnZ9LRoOym6-8" value="Servicio va a validar ese agente y devuelve toda la informacion" style="whiteSpace=wrap;html=1;verticalAlign=top;" parent="1" vertex="1">
          <mxGeometry x="380" y="380" width="120" height="90" as="geometry" />
        </mxCell>
        <mxCell id="DYDoGEOzyGnZ9LRoOym6-9" style="edgeStyle=orthogonalEdgeStyle;rounded=0;orthogonalLoop=1;jettySize=auto;html=1;" parent="1" source="DYDoGEOzyGnZ9LRoOym6-10" target="DYDoGEOzyGnZ9LRoOym6-11" edge="1">
          <mxGeometry relative="1" as="geometry" />
        </mxCell>
        <mxCell id="DYDoGEOzyGnZ9LRoOym6-10" value="EMITIR" style="shape=umlActor;verticalLabelPosition=bottom;verticalAlign=top;html=1;outlineConnect=0;" parent="1" vertex="1">
          <mxGeometry x="675" y="525" width="30" height="60" as="geometry" />
        </mxCell>
        <mxCell id="DYDoGEOzyGnZ9LRoOym6-11" value="MONGO" style="shape=cylinder3;whiteSpace=wrap;html=1;boundedLbl=1;backgroundOutline=1;size=15;" parent="1" vertex="1">
          <mxGeometry x="660" y="355" width="60" height="80" as="geometry" />
        </mxCell>
        <mxCell id="Ld5dgP6fd7TEVGU1cFsj-4" value="&lt;br&gt;&lt;br&gt;fechaInicioSoat == null ||&amp;nbsp;fechaFinSoat== null" style="rhombus;whiteSpace=wrap;html=1;verticalAlign=top;" vertex="1" parent="1">
          <mxGeometry x="80" y="385" width="190" height="100" as="geometry" />
        </mxCell>
      </root>
    </mxGraphModel>
  </diagram>
  <diagram id="cHkszDIAj_zq5uTbDH19" name="Página-2">
    <mxGraphModel dx="1674" dy="796" grid="1" gridSize="10" guides="1" tooltips="1" connect="1" arrows="1" fold="1" page="1" pageScale="1" pageWidth="827" pageHeight="1169" math="0" shadow="0">
      <root>
        <mxCell id="0" />
        <mxCell id="1" parent="0" />
        <mxCell id="Z7gfLSeZGh1GKmTFqMYn-1" value="" style="edgeStyle=orthogonalEdgeStyle;rounded=0;orthogonalLoop=1;jettySize=auto;html=1;" edge="1" parent="1" source="Z7gfLSeZGh1GKmTFqMYn-2" target="Z7gfLSeZGh1GKmTFqMYn-4">
          <mxGeometry relative="1" as="geometry" />
        </mxCell>
        <mxCell id="Z7gfLSeZGh1GKmTFqMYn-2" value="TIENDA" style="shape=umlActor;verticalLabelPosition=bottom;verticalAlign=top;html=1;outlineConnect=0;" vertex="1" parent="1">
          <mxGeometry x="110" y="140" width="30" height="60" as="geometry" />
        </mxCell>
        <mxCell id="Z7gfLSeZGh1GKmTFqMYn-3" value="" style="edgeStyle=orthogonalEdgeStyle;rounded=0;orthogonalLoop=1;jettySize=auto;html=1;" edge="1" parent="1" source="Z7gfLSeZGh1GKmTFqMYn-4" target="Z7gfLSeZGh1GKmTFqMYn-8">
          <mxGeometry relative="1" as="geometry" />
        </mxCell>
        <mxCell id="Z7gfLSeZGh1GKmTFqMYn-4" value="CONSUME SERVICIO CONSULTA AL CUAL (PRIMER AJUSTE SETIAR agente Y ENVIAR CodAgente)" style="whiteSpace=wrap;html=1;verticalAlign=top;" vertex="1" parent="1">
          <mxGeometry x="379" y="120" width="121" height="120" as="geometry" />
        </mxCell>
        <mxCell id="Z7gfLSeZGh1GKmTFqMYn-16" style="edgeStyle=orthogonalEdgeStyle;rounded=0;orthogonalLoop=1;jettySize=auto;html=1;" edge="1" parent="1" source="Z7gfLSeZGh1GKmTFqMYn-8" target="Z7gfLSeZGh1GKmTFqMYn-14">
          <mxGeometry relative="1" as="geometry" />
        </mxCell>
        <mxCell id="Z7gfLSeZGh1GKmTFqMYn-8" value="Servicio va a validar ese agente y devuelve toda la informacion" style="whiteSpace=wrap;html=1;verticalAlign=top;" vertex="1" parent="1">
          <mxGeometry x="380" y="380" width="120" height="90" as="geometry" />
        </mxCell>
        <mxCell id="Z7gfLSeZGh1GKmTFqMYn-21" style="edgeStyle=orthogonalEdgeStyle;rounded=0;orthogonalLoop=1;jettySize=auto;html=1;" edge="1" parent="1" source="Z7gfLSeZGh1GKmTFqMYn-12" target="Z7gfLSeZGh1GKmTFqMYn-20">
          <mxGeometry relative="1" as="geometry" />
        </mxCell>
        <mxCell id="Z7gfLSeZGh1GKmTFqMYn-12" value="&lt;br&gt;&lt;br&gt;Dependiendo lo que retornen&lt;br&gt;Validariamos Nosotros" style="rhombus;whiteSpace=wrap;html=1;verticalAlign=top;" vertex="1" parent="1">
          <mxGeometry x="100" y="630" width="190" height="100" as="geometry" />
        </mxCell>
        <mxCell id="Z7gfLSeZGh1GKmTFqMYn-19" style="edgeStyle=orthogonalEdgeStyle;rounded=0;orthogonalLoop=1;jettySize=auto;html=1;" edge="1" parent="1" source="Z7gfLSeZGh1GKmTFqMYn-14" target="Z7gfLSeZGh1GKmTFqMYn-12">
          <mxGeometry relative="1" as="geometry">
            <Array as="points">
              <mxPoint x="90" y="425" />
              <mxPoint x="90" y="543" />
              <mxPoint x="195" y="543" />
            </Array>
          </mxGeometry>
        </mxCell>
        <mxCell id="Z7gfLSeZGh1GKmTFqMYn-14" value="Ajustar para devolver en dado caso mensaje y dias. sin todos los otros datos" style="whiteSpace=wrap;html=1;verticalAlign=top;" vertex="1" parent="1">
          <mxGeometry x="120" y="395" width="120" height="60" as="geometry" />
        </mxCell>
        <mxCell id="Z7gfLSeZGh1GKmTFqMYn-18" value="&lt;h1&gt;Michel&lt;/h1&gt;&lt;div&gt;&lt;br&gt;&lt;/div&gt;" style="text;html=1;strokeColor=none;fillColor=none;spacing=5;spacingTop=-20;whiteSpace=wrap;overflow=hidden;rounded=0;" vertex="1" parent="1">
          <mxGeometry x="130" y="355" width="90" height="40" as="geometry" />
        </mxCell>
        <mxCell id="Z7gfLSeZGh1GKmTFqMYn-20" value="? Detiene" style="text;html=1;align=center;verticalAlign=middle;resizable=0;points=[];autosize=1;strokeColor=none;fillColor=none;" vertex="1" parent="1">
          <mxGeometry x="410" y="665" width="70" height="30" as="geometry" />
        </mxCell>
      </root>
    </mxGraphModel>
  </diagram>
</mxfile>
